<?xml version="1.0" encoding="UTF-8"?>
<svg width="16.001" height="12.002" enable-background="new 0 0 24 24" version="1.1" viewBox="0 0 16.001 12.002" xml:space="preserve" xmlns="http://www.w3.org/2000/svg"><g transform="translate(-4,-6)" opacity=".75"><path d="m6.188 7.855h-1.01c0.229-0.482 0.717-0.819 1.285-0.819 0.287 0 0.519-0.232 0.519-0.518-1e-3 -0.286-0.233-0.518-0.52-0.518-1.358 0-2.462 1.104-2.462 2.463 0 0.021 0.01 0.04 0.012 0.061-2e-3 0.021-0.012 0.039-0.012 0.06v1.458c0 0.402 0.327 0.729 0.729 0.729h1.458c0.402 0 0.729-0.326 0.729-0.729v-1.458c1e-3 -0.403-0.326-0.729-0.728-0.729z"/><path d="m9.644 7.855h-1.009c0.228-0.481 0.717-0.819 1.285-0.819 0.287 0 0.518-0.231 0.518-0.518 0-0.286-0.232-0.518-0.519-0.518-1.357 0-2.462 1.104-2.462 2.462 0 0.022 0.01 0.041 0.012 0.061-2e-3 0.022-0.012 0.04-0.012 0.061v1.458c0 0.403 0.327 0.729 0.729 0.729h1.458c0.403 0 0.729-0.326 0.729-0.729v-1.458c1e-3 -0.403-0.326-0.729-0.729-0.729z"/><path d="m17.813 16.146h1.01c-0.229 0.482-0.717 0.819-1.285 0.819-0.287 0-0.519 0.231-0.519 0.518s0.232 0.519 0.52 0.519c1.358 0 2.462-1.104 2.462-2.463 0-0.021-0.01-0.04-0.012-0.061 2e-3 -0.021 0.012-0.039 0.012-0.061v-1.458c0-0.401-0.327-0.729-0.729-0.729h-1.458c-0.402 0-0.729 0.326-0.729 0.729v1.458c-1e-3 0.402 0.326 0.729 0.728 0.729z"/><path d="m14.356 16.146h1.01c-0.229 0.481-0.717 0.819-1.285 0.819-0.287 0-0.518 0.23-0.518 0.518 0 0.286 0.231 0.519 0.519 0.519 1.356 0 2.462-1.104 2.462-2.462 0-0.021-0.01-0.041-0.013-0.062 3e-3 -0.021 0.013-0.039 0.013-0.061v-1.458c0-0.403-0.327-0.729-0.729-0.729h-1.459c-0.402 0-0.729 0.326-0.729 0.729v1.458c0 0.402 0.327 0.729 0.729 0.729z"/></g></svg>
